<svg width="145" height="146" viewBox="0 0 145 146" fill="none" xmlns="http://www.w3.org/2000/svg">
<g filter="url(#filter0_d_345_275)">
<path d="M22.2408 72.277C22.2384 81.168 24.5615 89.8493 28.9789 97.5012L21.8184 123.645L48.5737 116.63C55.9739 120.659 64.2652 122.77 72.6909 122.77H72.713C100.528 122.77 123.17 100.136 123.182 72.3168C123.187 58.8362 117.942 46.1599 108.412 36.623C98.8843 27.0868 86.2125 21.8323 72.711 21.8262C44.8929 21.8262 22.2527 44.4586 22.2412 72.277" fill="#1E9B4F"/>
<path d="M20.4389 72.2605C20.436 81.4713 22.8424 90.4632 27.4173 98.3891L20 125.47L47.7147 118.204C55.351 122.367 63.9487 124.562 72.6973 124.566H72.7198C101.532 124.566 124.988 101.118 125 72.3023C125.005 58.3373 119.571 45.2053 109.701 35.3267C99.8299 25.4493 86.7049 20.0057 72.7198 20C43.9023 20 20.4504 43.4445 20.4389 72.2605ZM36.944 97.0241L35.9091 95.3814C31.559 88.4645 29.263 80.4714 29.2662 72.2637C29.2753 48.3127 48.7675 28.8266 72.7363 28.8266C84.3437 28.8315 95.2522 33.3563 103.457 41.566C111.661 49.7765 116.176 60.6908 116.173 72.299C116.162 96.2501 96.6697 115.739 72.7198 115.739H72.7026C64.9043 115.735 57.2561 113.64 50.5862 109.683L48.9989 108.741L32.5524 113.053L36.944 97.0241Z" fill="url(#paint0_linear_345_275)"/>
<path d="M59.653 50.4125C58.6744 48.2374 57.6445 48.1935 56.7138 48.1554C55.9518 48.1226 55.0806 48.125 54.2103 48.125C53.3391 48.125 51.9236 48.4528 50.7272 49.7591C49.5296 51.0667 46.1548 54.2265 46.1548 60.6533C46.1548 67.08 50.8359 73.2914 51.4885 74.1638C52.1418 75.0346 60.5254 88.6452 73.803 93.8813C84.8378 98.2326 87.0835 97.3672 89.4784 97.149C91.8737 96.9316 97.2073 93.9899 98.2955 90.9396C99.3844 87.8897 99.3845 85.2754 99.058 84.729C98.7315 84.1847 97.8603 83.8579 96.554 83.2049C95.2476 82.5519 88.825 79.3913 87.6277 78.9553C86.4301 78.5197 85.5593 78.3023 84.6881 79.6103C83.817 80.9162 81.3154 83.8579 80.5529 84.729C79.7913 85.6022 79.0288 85.7109 77.7229 85.0576C76.4157 84.4021 72.2087 83.0244 67.2175 78.5746C63.3342 75.1121 60.7125 70.8362 59.9504 69.5282C59.1883 68.2223 59.8688 67.5144 60.5238 66.8634C61.1107 66.2781 61.8305 65.3381 62.4843 64.5756C63.1357 63.8127 63.353 63.2684 63.7886 62.3972C64.2246 61.5253 64.0064 60.7624 63.6804 60.109C63.353 59.4556 60.8146 52.9952 59.653 50.4125Z" fill="white"/>
</g>
<defs>
<filter id="filter0_d_345_275" x="0" y="0" width="145" height="145.47" filterUnits="userSpaceOnUse" color-interpolation-filters="sRGB">
<feFlood flood-opacity="0" result="BackgroundImageFix"/>
<feColorMatrix in="SourceAlpha" type="matrix" values="0 0 0 0 0 0 0 0 0 0 0 0 0 0 0 0 0 0 127 0" result="hardAlpha"/>
<feOffset/>
<feGaussianBlur stdDeviation="10"/>
<feComposite in2="hardAlpha" operator="out"/>
<feColorMatrix type="matrix" values="0 0 0 0 0 0 0 0 0 0 0 0 0 0 0 0 0 0 0.25 0"/>
<feBlend mode="normal" in2="BackgroundImageFix" result="effect1_dropShadow_345_275"/>
<feBlend mode="normal" in="SourceGraphic" in2="effect1_dropShadow_345_275" result="shape"/>
</filter>
<linearGradient id="paint0_linear_345_275" x1="5270" y1="10567" x2="5270" y2="20" gradientUnits="userSpaceOnUse">
<stop stop-color="#F9F9F9"/>
<stop offset="1" stop-color="white"/>
</linearGradient>
</defs>
</svg>
