<svg width="32" height="26" viewBox="0 0 32 26" fill="none" xmlns="http://www.w3.org/2000/svg">
<path d="M14.0688 24.7887C13.6437 25.2137 13.0673 25.4524 12.4662 25.4524C11.8652 25.4524 11.2888 25.2137 10.8637 24.7887L0.663712 14.5887C0.238777 14.1637 6.10352e-05 13.5872 6.10352e-05 12.9862C6.10352e-05 12.3852 0.238777 11.8087 0.663712 11.3837L10.8637 1.18368C11.2912 0.770786 11.8638 0.542318 12.4581 0.547483C13.0524 0.552647 13.6209 0.791031 14.0412 1.21129C14.4614 1.63155 14.6998 2.20006 14.705 2.79437C14.7101 3.38868 14.4817 3.96124 14.0688 4.38874C11.7738 6.75664 13.4517 10.7195 16.7493 10.7195L29.4662 10.7195C30.0674 10.7195 30.6439 10.9584 31.069 11.3834C31.4941 11.8085 31.7329 12.3851 31.7329 12.9862C31.7329 13.5874 31.4941 14.1639 31.069 14.589C30.6439 15.0141 30.0674 15.2529 29.4662 15.2529L16.7493 15.2529C13.4517 15.2529 11.7738 19.2158 14.0688 21.5837C14.4937 22.0087 14.7324 22.5852 14.7324 23.1862C14.7324 23.7872 14.4937 24.3637 14.0688 24.7887Z" fill="white"/>
</svg>
