<svg width="26" height="31" viewBox="0 0 26 31" fill="none" xmlns="http://www.w3.org/2000/svg">
<path fill-rule="evenodd" clip-rule="evenodd" d="M3.25 23.8333V6.5C3.25 5.63805 3.59241 4.8114 4.2019 4.2019C4.8114 3.59241 5.63805 3.25 6.5 3.25H19.5C20.362 3.25 21.1886 3.59241 21.7981 4.2019C22.4076 4.8114 22.75 5.63805 22.75 6.5V23.8333C22.75 24.6953 22.4076 25.5219 21.7981 26.1314C21.1886 26.7409 20.362 27.0833 19.5 27.0833H6.5C5.63805 27.0833 4.8114 26.7409 4.2019 26.1314C3.59241 25.5219 3.25 24.6953 3.25 23.8333ZM6.5 30.3333C4.77609 30.3333 3.12279 29.6485 1.90381 28.4295C0.68482 27.2105 0 25.5572 0 23.8333V6.5C0 4.77609 0.68482 3.12279 1.90381 1.90381C3.12279 0.684819 4.77609 0 6.5 0H19.5C21.2239 0 22.8772 0.684819 24.0962 1.90381C25.3152 3.12279 26 4.77609 26 6.5V23.8333C26 25.5572 25.3152 27.2105 24.0962 28.4295C22.8772 29.6485 21.2239 30.3333 19.5 30.3333H6.5ZM7.58333 6.5C7.0087 6.5 6.4576 6.72827 6.05127 7.1346C5.64494 7.54093 5.41667 8.09203 5.41667 8.66667C5.41667 9.2413 5.64494 9.7924 6.05127 10.1987C6.4576 10.6051 7.0087 10.8333 7.58333 10.8333H18.4167C18.9913 10.8333 19.5424 10.6051 19.9487 10.1987C20.3551 9.7924 20.5833 9.2413 20.5833 8.66667C20.5833 8.09203 20.3551 7.54093 19.9487 7.1346C19.5424 6.72827 18.9913 6.5 18.4167 6.5H7.58333ZM9.75 21.6667C9.75 22.2413 9.52173 22.7924 9.1154 23.1987C8.70907 23.6051 8.15797 23.8333 7.58333 23.8333C7.0087 23.8333 6.4576 23.6051 6.05127 23.1987C5.64494 22.7924 5.41667 22.2413 5.41667 21.6667C5.41667 21.092 5.64494 20.5409 6.05127 20.1346C6.4576 19.7283 7.0087 19.5 7.58333 19.5C8.15797 19.5 8.70907 19.7283 9.1154 20.1346C9.52173 20.5409 9.75 21.092 9.75 21.6667ZM13 23.8333C13.5746 23.8333 14.1257 23.6051 14.5321 23.1987C14.9384 22.7924 15.1667 22.2413 15.1667 21.6667C15.1667 21.092 14.9384 20.5409 14.5321 20.1346C14.1257 19.7283 13.5746 19.5 13 19.5C12.4254 19.5 11.8743 19.7283 11.4679 20.1346C11.0616 20.5409 10.8333 21.092 10.8333 21.6667C10.8333 22.2413 11.0616 22.7924 11.4679 23.1987C11.8743 23.6051 12.4254 23.8333 13 23.8333ZM20.5833 21.6667C20.5833 22.2413 20.3551 22.7924 19.9487 23.1987C19.5424 23.6051 18.9913 23.8333 18.4167 23.8333C17.842 23.8333 17.2909 23.6051 16.8846 23.1987C16.4783 22.7924 16.25 22.2413 16.25 21.6667C16.25 21.092 16.4783 20.5409 16.8846 20.1346C17.2909 19.7283 17.842 19.5 18.4167 19.5C18.9913 19.5 19.5424 19.7283 19.9487 20.1346C20.3551 20.5409 20.5833 21.092 20.5833 21.6667ZM7.58333 17.3333C8.15797 17.3333 8.70907 17.1051 9.1154 16.6987C9.52173 16.2924 9.75 15.7413 9.75 15.1667C9.75 14.592 9.52173 14.0409 9.1154 13.6346C8.70907 13.2283 8.15797 13 7.58333 13C7.0087 13 6.4576 13.2283 6.05127 13.6346C5.64494 14.0409 5.41667 14.592 5.41667 15.1667C5.41667 15.7413 5.64494 16.2924 6.05127 16.6987C6.4576 17.1051 7.0087 17.3333 7.58333 17.3333ZM15.1667 15.1667C15.1667 15.7413 14.9384 16.2924 14.5321 16.6987C14.1257 17.1051 13.5746 17.3333 13 17.3333C12.4254 17.3333 11.8743 17.1051 11.4679 16.6987C11.0616 16.2924 10.8333 15.7413 10.8333 15.1667C10.8333 14.592 11.0616 14.0409 11.4679 13.6346C11.8743 13.2283 12.4254 13 13 13C13.5746 13 14.1257 13.2283 14.5321 13.6346C14.9384 14.0409 15.1667 14.592 15.1667 15.1667ZM18.4167 17.3333C18.9913 17.3333 19.5424 17.1051 19.9487 16.6987C20.3551 16.2924 20.5833 15.7413 20.5833 15.1667C20.5833 14.592 20.3551 14.0409 19.9487 13.6346C19.5424 13.2283 18.9913 13 18.4167 13C17.842 13 17.2909 13.2283 16.8846 13.6346C16.4783 14.0409 16.25 14.592 16.25 15.1667C16.25 15.7413 16.4783 16.2924 16.8846 16.6987C17.2909 17.1051 17.842 17.3333 18.4167 17.3333Z" fill="#FDFBFB"/>
</svg>
