<svg width="20" height="21" viewBox="0 0 20 21" fill="none" xmlns="http://www.w3.org/2000/svg">
<path d="M10 0.5C15.342 0.5 20 4.91 20 10C20 15.004 15.447 18.942 10 18.942C8.83497 18.9428 7.67721 18.7585 6.57 18.396C6.106 18.846 5.947 18.999 4.962 19.949C4.252 20.485 3.584 20.667 2.987 20.329C2.385 19.989 2.204 19.327 2.327 18.455L2.727 16.136C0.99 14.502 0 12.342 0 10C0 4.91 4.657 0.5 10 0.5ZM10 1.9C5.414 1.9 1.4 5.7 1.4 10C1.4 12.045 2.312 13.928 3.92 15.33L3.94 15.347L4.237 15.605L4.17 15.995L4.032 16.799L3.995 17.013L3.71 18.671C3.69367 18.7827 3.68365 18.8952 3.68 19.008V19.103C3.68 19.1077 3.67933 19.1103 3.678 19.111C3.685 19.101 3.821 19.058 4.054 18.888L6.224 16.782L6.638 16.938C7.71349 17.339 8.85218 17.5439 10 17.543C14.716 17.543 18.6 14.183 18.6 10C18.6 5.701 14.586 1.9 10 1.9ZM5.227 8.313C5.42846 8.30564 5.62933 8.33896 5.81762 8.41098C6.00591 8.483 6.17776 8.59223 6.32288 8.73215C6.46801 8.87207 6.58344 9.03981 6.66228 9.22535C6.74113 9.41088 6.78176 9.61041 6.78176 9.812C6.78176 10.0136 6.74113 10.2131 6.66228 10.3987C6.58344 10.5842 6.46801 10.7519 6.32288 10.8918C6.17776 11.0318 6.00591 11.141 5.81762 11.213C5.62933 11.285 5.42846 11.3184 5.227 11.311C4.83892 11.2968 4.47146 11.1327 4.20191 10.8531C3.93237 10.5736 3.78176 10.2003 3.78176 9.812C3.78176 9.42366 3.93237 9.05045 4.20191 8.77088C4.47146 8.49131 4.83892 8.32718 5.227 8.313ZM10.225 8.313C10.4265 8.30564 10.6273 8.33896 10.8156 8.41098C11.0039 8.483 11.1758 8.59223 11.3209 8.73215C11.466 8.87207 11.5814 9.03981 11.6603 9.22535C11.7391 9.41088 11.7798 9.61041 11.7798 9.812C11.7798 10.0136 11.7391 10.2131 11.6603 10.3987C11.5814 10.5842 11.466 10.7519 11.3209 10.8918C11.1758 11.0318 11.0039 11.141 10.8156 11.213C10.6273 11.285 10.4265 11.3184 10.225 11.311C9.83692 11.2968 9.46946 11.1327 9.19991 10.8531C8.93037 10.5736 8.77976 10.2003 8.77976 9.812C8.77976 9.42366 8.93037 9.05045 9.19991 8.77088C9.46946 8.49131 9.83692 8.32718 10.225 8.313ZM15.222 8.313C15.4235 8.30564 15.6243 8.33896 15.8126 8.41098C16.0009 8.483 16.1728 8.59223 16.3179 8.73215C16.463 8.87207 16.5784 9.03981 16.6573 9.22535C16.7361 9.41088 16.7768 9.61041 16.7768 9.812C16.7768 10.0136 16.7361 10.2131 16.6573 10.3987C16.5784 10.5842 16.463 10.7519 16.3179 10.8918C16.1728 11.0318 16.0009 11.141 15.8126 11.213C15.6243 11.285 15.4235 11.3184 15.222 11.311C14.8339 11.2968 14.4665 11.1327 14.1969 10.8531C13.9274 10.5736 13.7768 10.2003 13.7768 9.812C13.7768 9.42366 13.9274 9.05045 14.1969 8.77088C14.4665 8.49131 14.8339 8.32718 15.222 8.313Z" fill="white"/>
</svg>
