<svg width="28" height="20" viewBox="0 0 28 20" fill="none" xmlns="http://www.w3.org/2000/svg">
<path d="M26 0H2C1.46957 0 0.960859 0.204028 0.585786 0.5672C0.210714 0.930372 0 1.42294 0 1.93654V17.4289C0 17.9425 0.210714 18.435 0.585786 18.7982C0.960859 19.1614 1.46957 19.3654 2 19.3654H26C26.5304 19.3654 27.0391 19.1614 27.4142 18.7982C27.7893 18.435 28 17.9425 28 17.4289V1.93654C28 1.42294 27.7893 0.930372 27.4142 0.5672C27.0391 0.204028 26.5304 0 26 0ZM23.8 1.93654L14 8.50142L4.2 1.93654H23.8ZM2 17.4289V2.81767L13.43 10.4767C13.5974 10.5891 13.7963 10.6494 14 10.6494C14.2037 10.6494 14.4026 10.5891 14.57 10.4767L26 2.81767V17.4289H2Z" fill="white"/>
</svg>
