<svg width="40" height="65" viewBox="0 0 40 65" fill="none" xmlns="http://www.w3.org/2000/svg">
<path fill-rule="evenodd" clip-rule="evenodd" d="M15.0108 5.46331C18.3579 2.22187 22.8977 0.400567 27.6316 0.400024H36.8116C37.4879 0.400024 38.1365 0.66016 38.6147 1.1232C39.0929 1.58625 39.3616 2.21427 39.3616 2.86912V14.7208C39.3616 15.3756 39.0929 16.0036 38.6147 16.4667C38.1365 16.9297 37.4879 17.1898 36.8116 17.1898H27.6316C27.5646 17.1898 27.4983 17.2026 27.4364 17.2274C27.3745 17.2523 27.3183 17.2886 27.2709 17.3345C27.2236 17.3803 27.186 17.4348 27.1604 17.4947C27.1348 17.5546 27.1216 17.6188 27.1216 17.6837V24.1033H36.8116C37.1992 24.1031 37.5818 24.1885 37.9303 24.3529C38.2788 24.5174 38.5839 24.7567 38.8226 25.0525C39.0612 25.3483 39.2271 25.6929 39.3075 26.0601C39.3879 26.4273 39.3808 26.8074 39.2868 27.1716L36.2268 39.0232C36.0887 39.5576 35.7701 40.0319 35.3216 40.3707C34.8731 40.7095 34.3204 40.8934 33.7516 40.8931H27.1216V62.1273C27.1216 62.7822 26.8529 63.4102 26.3747 63.8732C25.8965 64.3363 25.2479 64.5964 24.5716 64.5964H12.3316C11.6553 64.5964 11.0067 64.3363 10.5284 63.8732C10.0502 63.4102 9.78156 62.7822 9.78156 62.1273V40.8931H3.15156C2.47526 40.8931 1.82666 40.633 1.34844 40.1699C0.870222 39.7069 0.601562 39.0789 0.601562 38.424V26.5724C0.601562 26.2481 0.66752 25.9271 0.795669 25.6275C0.923819 25.3279 1.11165 25.0558 1.34844 24.8265C1.58523 24.5972 1.86634 24.4153 2.17572 24.2913C2.4851 24.1672 2.81669 24.1033 3.15156 24.1033H9.78156V17.6837C9.78212 13.1 11.6631 8.7042 15.0108 5.46331ZM27.6316 5.33821C24.2501 5.33821 21.007 6.63889 18.6159 8.95411C16.2249 11.2693 14.8816 14.4094 14.8816 17.6837V26.5724C14.8816 27.2272 14.6129 27.8553 14.1347 28.3183C13.6565 28.7813 13.0079 29.0415 12.3316 29.0415H5.70156V35.9549H12.3316C13.0079 35.9549 13.6565 36.2151 14.1347 36.6781C14.6129 37.1412 14.8816 37.7692 14.8816 38.424V59.6582H22.0216V38.424C22.0216 37.7692 22.2902 37.1412 22.7684 36.6781C23.2467 36.2151 23.8953 35.9549 24.5716 35.9549H31.7592L33.5442 29.0415H24.5716C23.8953 29.0415 23.2467 28.7813 22.7684 28.3183C22.2902 27.8553 22.0216 27.2272 22.0216 26.5724V17.6837C22.0216 16.243 22.6126 14.8614 23.6647 13.8427C24.7168 12.824 26.1437 12.2517 27.6316 12.2517H34.2616V5.33821H27.6316Z" fill="#FDFBFB"/>
</svg>
