<svg width="19" height="20" viewBox="0 0 19 20" fill="none" xmlns="http://www.w3.org/2000/svg">
<path d="M13.5 5.15919C13.5 4.90239 13.6054 4.6561 13.7929 4.47452C13.9804 4.29293 14.2348 4.19092 14.5 4.19092C14.7652 4.19092 15.0196 4.29293 15.2071 4.47452C15.3946 4.6561 15.5 4.90239 15.5 5.15919C15.5 5.41599 15.3946 5.66227 15.2071 5.84386C15.0196 6.02545 14.7652 6.12746 14.5 6.12746C14.2348 6.12746 13.9804 6.02545 13.7929 5.84386C13.6054 5.66227 13.5 5.41599 13.5 5.15919Z" fill="#1E9B4F"/>
<path fill-rule="evenodd" clip-rule="evenodd" d="M9.5 5.40088C8.24022 5.40088 7.03204 5.88545 6.14124 6.74798C5.25045 7.61051 4.75 8.78036 4.75 10.0002C4.75 11.22 5.25045 12.3898 6.14124 13.2524C7.03204 14.1149 8.24022 14.5995 9.5 14.5995C10.7598 14.5995 11.968 14.1149 12.8588 13.2524C13.7496 12.3898 14.25 11.22 14.25 10.0002C14.25 8.78036 13.7496 7.61051 12.8588 6.74798C11.968 5.88545 10.7598 5.40088 9.5 5.40088ZM6.25 10.0002C6.25 9.16556 6.59241 8.36514 7.2019 7.77499C7.8114 7.18483 8.63805 6.85329 9.5 6.85329C10.362 6.85329 11.1886 7.18483 11.7981 7.77499C12.4076 8.36514 12.75 9.16556 12.75 10.0002C12.75 10.8348 12.4076 11.6352 11.7981 12.2253C11.1886 12.8155 10.362 13.147 9.5 13.147C8.63805 13.147 7.8114 12.8155 7.2019 12.2253C6.59241 11.6352 6.25 10.8348 6.25 10.0002Z" fill="#1E9B4F"/>
<path fill-rule="evenodd" clip-rule="evenodd" d="M14.758 1.12423C11.2634 0.748954 7.73663 0.748954 4.24201 1.12423C2.23001 1.34209 0.605013 2.8768 0.369013 4.83465C-0.0448794 8.26681 -0.0448794 11.7339 0.369013 15.1661C0.605013 17.1239 2.22901 18.6587 4.24201 18.8765C7.73668 19.251 11.2633 19.251 14.758 18.8765C16.77 18.6587 18.395 17.1239 18.631 15.1661C19.0449 11.7339 19.0449 8.26681 18.631 4.83465C18.395 2.8768 16.771 1.34209 14.758 1.12423ZM4.40801 2.56696C7.79231 2.20357 11.2077 2.20357 14.592 2.56696C15.922 2.7122 16.987 3.72791 17.142 5.00409C17.5432 8.32362 17.5432 11.6771 17.142 14.9967C17.0618 15.6212 16.7666 16.2014 16.3039 16.6434C15.8412 17.0855 15.2381 17.3636 14.592 17.4328C11.2077 17.7962 7.79231 17.7962 4.40801 17.4328C3.76195 17.3636 3.15886 17.0855 2.69617 16.6434C2.23347 16.2014 1.93819 15.6212 1.85801 14.9967C1.45687 11.6771 1.45687 8.32362 1.85801 5.00409C1.93819 4.37952 2.23347 3.79935 2.69617 3.35731C3.15886 2.91527 3.76195 2.6362 4.40801 2.56696Z" fill="#1E9B4F"/>
</svg>
