<svg width="12" height="20" viewBox="0 0 12 20" fill="none" xmlns="http://www.w3.org/2000/svg">
<path fill-rule="evenodd" clip-rule="evenodd" d="M4.238 2.04877C5.22244 1.09541 6.55768 0.55973 7.95 0.55957H10.65C10.8489 0.55957 11.0397 0.636081 11.1803 0.77227C11.321 0.90846 11.4 1.09317 11.4 1.28577V4.77155C11.4 4.96415 11.321 5.14886 11.1803 5.28505C11.0397 5.42124 10.8489 5.49775 10.65 5.49775H7.95C7.9303 5.49775 7.9108 5.50151 7.8926 5.50881C7.8744 5.51611 7.85786 5.52681 7.84393 5.54029C7.83001 5.55378 7.81896 5.56979 7.81142 5.58741C7.80388 5.60503 7.8 5.62392 7.8 5.64299V7.53112H10.65C10.764 7.53106 10.8766 7.55617 10.979 7.60455C11.0815 7.65292 11.1713 7.72329 11.2415 7.81029C11.3117 7.8973 11.3604 7.99865 11.3841 8.10665C11.4078 8.21465 11.4057 8.32645 11.378 8.43355L10.478 11.9193C10.4374 12.0765 10.3437 12.216 10.2118 12.3157C10.0799 12.4153 9.91732 12.4694 9.75 12.4693H7.8V18.7147C7.8 18.9073 7.72098 19.092 7.58033 19.2282C7.43968 19.3643 7.24891 19.4409 7.05 19.4409H3.45C3.25109 19.4409 3.06032 19.3643 2.91967 19.2282C2.77902 19.092 2.7 18.9073 2.7 18.7147V12.4693H0.75C0.551088 12.4693 0.360322 12.3928 0.21967 12.2566C0.0790175 12.1204 0 11.9357 0 11.7431V8.25733C0 8.16196 0.0193993 8.06753 0.0570903 7.97942C0.0947813 7.89131 0.150026 7.81126 0.21967 7.74382C0.289314 7.67639 0.371993 7.6229 0.462987 7.5864C0.553982 7.54991 0.651509 7.53112 0.75 7.53112H2.7V5.64299C2.70016 4.29485 3.2534 3.00198 4.238 2.04877ZM7.95 2.01198C6.95544 2.01198 6.00161 2.39453 5.29835 3.07548C4.59509 3.75642 4.2 4.67999 4.2 5.64299V8.25733C4.2 8.44993 4.12098 8.63464 3.98033 8.77083C3.83968 8.90702 3.64891 8.98353 3.45 8.98353H1.5V11.0169H3.45C3.64891 11.0169 3.83968 11.0934 3.98033 11.2296C4.12098 11.3658 4.2 11.5505 4.2 11.7431V17.9885H6.3V11.7431C6.3 11.5505 6.37902 11.3658 6.51967 11.2296C6.66032 11.0934 6.85109 11.0169 7.05 11.0169H9.164L9.689 8.98353H7.05C6.85109 8.98353 6.66032 8.90702 6.51967 8.77083C6.37902 8.63464 6.3 8.44993 6.3 8.25733V5.64299C6.3 5.21927 6.47384 4.8129 6.78327 4.51329C7.09271 4.21367 7.51239 4.04535 7.95 4.04535H9.9V2.01198H7.95Z" fill="#1E9B4F"/>
</svg>
