<svg width="22" height="16" viewBox="0 0 22 16" fill="none" xmlns="http://www.w3.org/2000/svg">
<path d="M13 7.87453L9.5 9.81107V5.93799L13 7.87453Z" fill="#6A8FA6" stroke="#1E9B4F" stroke-width="1.5" stroke-linecap="round" stroke-linejoin="round"/>
<path d="M1 8.56026V7.18919C1 4.38604 1 2.98399 1.905 2.08253C2.811 1.1801 4.237 1.14137 7.088 1.06294C8.438 1.02614 9.818 1 11 1C12.182 1 13.561 1.02614 14.912 1.06294C17.763 1.14137 19.189 1.1801 20.094 2.08253C20.999 2.98496 21 4.38701 21 7.18919V8.55929C21 11.3634 21 12.7645 20.095 13.6669C19.189 14.5684 17.764 14.6081 14.912 14.6855C13.562 14.7233 12.182 14.7495 11 14.7495C9.818 14.7495 8.439 14.7233 7.088 14.6855C4.237 14.6081 2.811 14.5694 1.905 13.6669C0.999 12.7645 1 11.3624 1 8.56026Z" stroke="#1E9B4F" stroke-width="1.5"/>
</svg>
