<svg width="65" height="63" viewBox="0 0 65 63" fill="none" xmlns="http://www.w3.org/2000/svg">
<path d="M46.0977 15.0751C46.0977 14.202 46.4559 13.3646 47.0935 12.7472C47.7311 12.1298 48.5959 11.783 49.4977 11.783C50.3994 11.783 51.2642 12.1298 51.9018 12.7472C52.5394 13.3646 52.8977 14.202 52.8977 15.0751C52.8977 15.9482 52.5394 16.7856 51.9018 17.403C51.2642 18.0204 50.3994 18.3672 49.4977 18.3672C48.5959 18.3672 47.7311 18.0204 47.0935 17.403C46.4559 16.7856 46.0977 15.9482 46.0977 15.0751Z" fill="#FDFBFB"/>
<path fill-rule="evenodd" clip-rule="evenodd" d="M32.5055 15.8981C28.2222 15.8981 24.1144 17.5456 21.0857 20.4782C18.057 23.4108 16.3555 27.3883 16.3555 31.5356C16.3555 35.683 18.057 39.6605 21.0857 42.5931C24.1144 45.5257 28.2222 47.1732 32.5055 47.1732C36.7887 47.1732 40.8965 45.5257 43.9252 42.5931C46.954 39.6605 48.6555 35.683 48.6555 31.5356C48.6555 27.3883 46.954 23.4108 43.9252 20.4782C40.8965 17.5456 36.7887 15.8981 32.5055 15.8981ZM21.4555 31.5356C21.4555 28.698 22.6197 25.9766 24.6919 23.97C26.7642 21.9635 29.5748 20.8363 32.5055 20.8363C35.4361 20.8363 38.2467 21.9635 40.319 23.97C42.3913 25.9766 43.5555 28.698 43.5555 31.5356C43.5555 34.3733 42.3913 37.0947 40.319 39.1013C38.2467 41.1078 35.4361 42.235 32.5055 42.235C29.5748 42.235 26.7642 41.1078 24.6919 39.1013C22.6197 37.0947 21.4555 34.3733 21.4555 31.5356Z" fill="#FDFBFB"/>
<path fill-rule="evenodd" clip-rule="evenodd" d="M50.3765 1.35686C38.4948 0.0809155 26.5038 0.0809155 14.6221 1.35686C7.78126 2.09759 2.25626 7.3156 1.45386 13.9723C0.0466289 25.6416 0.0466289 37.4299 1.45386 49.0992C2.25626 55.7559 7.77786 60.9739 14.6221 61.7146C26.5039 62.9879 38.4946 62.9879 50.3765 61.7146C57.2173 60.9739 62.7423 55.7559 63.5447 49.0992C64.9519 37.4299 64.9519 25.6416 63.5447 13.9723C62.7423 7.3156 57.2207 2.09759 50.3765 1.35686ZM15.1865 6.26212C26.6931 5.02662 38.3055 5.02662 49.8121 6.26212C54.3341 6.75594 57.9551 10.2094 58.4821 14.5484C59.8459 25.8348 59.8459 37.2367 58.4821 48.5231C58.2095 50.6466 57.2055 52.6192 55.6323 54.1222C54.0592 55.6251 52.0087 56.5707 49.8121 56.8061C38.3055 58.0416 26.6931 58.0416 15.1865 56.8061C12.9899 56.5707 10.9394 55.6251 9.36619 54.1222C7.79302 52.6192 6.78905 50.6466 6.51646 48.5231C5.15258 37.2367 5.15258 25.8348 6.51646 14.5484C6.78905 12.4248 7.79302 10.4523 9.36619 8.94932C10.9394 7.44638 12.9899 6.49754 15.1865 6.26212Z" fill="#FDFBFB"/>
</svg>
