<svg width="19" height="27" viewBox="0 0 19 27" fill="none" xmlns="http://www.w3.org/2000/svg">
<path d="M9.45 12.4181C8.55489 12.4181 7.69645 12.0738 7.06351 11.4609C6.43058 10.8481 6.075 10.0169 6.075 9.15016C6.075 8.28346 6.43058 7.45225 7.06351 6.8394C7.69645 6.22654 8.55489 5.88225 9.45 5.88225C10.3451 5.88225 11.2036 6.22654 11.8365 6.8394C12.4694 7.45225 12.825 8.28346 12.825 9.15016C12.825 9.57931 12.7377 10.0043 12.5681 10.4007C12.3985 10.7972 12.1499 11.1575 11.8365 11.4609C11.5231 11.7644 11.151 12.0051 10.7416 12.1693C10.3321 12.3335 9.89321 12.4181 9.45 12.4181ZM9.45 0C6.9437 0 4.54006 0.964032 2.76784 2.68002C0.995622 4.39601 0 6.72339 0 9.15016C0 16.0128 9.45 26.1433 9.45 26.1433C9.45 26.1433 18.9 16.0128 18.9 9.15016C18.9 6.72339 17.9044 4.39601 16.1322 2.68002C14.3599 0.964032 11.9563 0 9.45 0Z" fill="white"/>
</svg>
