<svg width="24" height="24" viewBox="0 0 24 24" fill="none" xmlns="http://www.w3.org/2000/svg">
<path d="M3.30736e-05 0H9.80573L11.5052 7.40311L9.37945 9.46138C10.6293 11.3448 12.2831 12.9458 14.2286 14.1556L16.3543 12.0984L24 13.7439V23.2385H22.8571C18.4575 23.2457 14.1502 22.0172 10.4572 19.7018C7.73399 17.9954 5.41493 15.7499 3.6526 13.1131C1.26131 9.53729 -0.00746859 5.36661 3.30736e-05 1.10659V0ZM2.3166 2.21319C2.50918 5.66567 3.63172 9.0092 5.5726 11.9114C7.15925 14.285 9.24693 16.3064 11.6983 17.8427C14.6956 19.722 18.1487 20.8089 21.7143 20.9954V15.5189L17.0823 14.5229L14.5977 16.9298L13.84 16.5126C10.963 14.9296 8.58121 12.6233 6.94631 9.83762L6.51545 9.10395L9.00116 6.69821L7.97259 2.21319H2.3166Z" fill="white"/>
</svg>
