<svg width="18" height="16" viewBox="0 0 18 16" fill="none" xmlns="http://www.w3.org/2000/svg">
<path d="M12.5 9.75165H11.71L11.43 9.51229C12.444 8.46981 13.0012 7.13884 13 5.76234C13 4.62266 12.6188 3.50857 11.9046 2.56096C11.1903 1.61335 10.1752 0.874772 8.98744 0.438634C7.79973 0.00249673 6.49279 -0.111617 5.23192 0.110724C3.97104 0.333065 2.81285 0.881875 1.90381 1.68775C0.994767 2.49363 0.375703 3.52038 0.124899 4.63816C-0.125905 5.75595 0.00281635 6.91456 0.494786 7.96749C0.986756 9.02042 1.81988 9.92038 2.8888 10.5535C3.95772 11.1867 5.21442 11.5247 6.5 11.5247C8.11 11.5247 9.59 11.0016 10.73 10.1329L11 10.3811V11.0814L16 15.5051L17.49 14.1842L12.5 9.75165ZM6.5 9.75165C4.01 9.75165 2 7.96976 2 5.76234C2 3.55492 4.01 1.77303 6.5 1.77303C8.99 1.77303 11 3.55492 11 5.76234C11 7.96976 8.99 9.75165 6.5 9.75165Z" fill="#A5A5A5"/>
</svg>
