<svg width="32" height="25" viewBox="0 0 32 25" fill="none" xmlns="http://www.w3.org/2000/svg">
<path d="M14.0688 24.2411C13.6437 24.6661 13.0673 24.9048 12.4662 24.9048C11.8652 24.9048 11.2888 24.6661 10.8637 24.2411L0.663712 14.0411C0.238777 13.6161 6.10352e-05 13.0396 6.10352e-05 12.4386C6.10352e-05 11.8376 0.238777 11.2611 0.663712 10.8361L10.8637 0.63607C11.2912 0.223179 11.8638 -0.00528908 12.4581 -0.000123978C13.0524 0.00503922 13.6209 0.243423 14.0412 0.663681C14.4614 1.08394 14.6998 1.65245 14.705 2.24676C14.7101 2.84107 14.4817 3.41364 14.0688 3.84114C11.7738 6.20903 13.4517 10.1719 16.7493 10.1719L29.4662 10.1719C30.0674 10.1719 30.6439 10.4107 31.069 10.8358C31.4941 11.2609 31.7329 11.8374 31.7329 12.4386C31.7329 13.0398 31.4941 13.6163 31.069 14.0414C30.6439 14.4665 30.0674 14.7053 29.4662 14.7053L16.7493 14.7053C13.4517 14.7053 11.7738 18.6682 14.0688 21.0361C14.4937 21.4611 14.7324 22.0376 14.7324 22.6386C14.7324 23.2396 14.4937 23.8161 14.0688 24.2411Z" fill="white"/>
</svg>
