<svg width="32" height="25" viewBox="0 0 32 25" fill="none" xmlns="http://www.w3.org/2000/svg">
<path d="M17.6641 0.663649C18.0892 0.238715 18.6656 0 19.2667 0C19.8677 0 20.4441 0.238715 20.8692 0.663649L31.0692 10.8636C31.4941 11.2887 31.7328 11.8651 31.7328 12.4662C31.7328 13.0672 31.4941 13.6437 31.0692 14.0687L20.8692 24.2687C20.4417 24.6816 19.8691 24.9101 19.2748 24.9049C18.6805 24.8997 18.112 24.6614 17.6917 24.2411C17.2715 23.8208 17.0331 23.2523 17.0279 22.658C17.0228 22.0637 17.2512 21.4911 17.6641 21.0637C19.9591 18.6958 18.2812 14.7328 14.9837 14.7328H2.26667C1.66551 14.7328 1.08897 14.494 0.663891 14.069C0.238809 13.6439 0 13.0673 0 12.4662C0 11.865 0.238809 11.2885 0.663891 10.8634C1.08897 10.4383 1.66551 10.1995 2.26667 10.1995H14.9837C18.2812 10.1995 19.9591 6.23661 17.6641 3.86872C17.2392 3.44365 17.0005 2.86722 17.0005 2.26618C17.0005 1.66514 17.2392 1.08871 17.6641 0.663649Z" fill="white"/>
</svg>
