<svg width="20" height="19" viewBox="0 0 20 19" fill="none" xmlns="http://www.w3.org/2000/svg">
<path d="M1 15.5C1 14.3065 1.47411 13.1619 2.31802 12.318C3.16193 11.4741 4.30653 11 5.5 11H14.5C15.6935 11 16.8381 11.4741 17.682 12.318C18.5259 13.1619 19 14.3065 19 15.5C19 16.0967 18.7629 16.669 18.341 17.091C17.919 17.5129 17.3467 17.75 16.75 17.75H3.25C2.65326 17.75 2.08097 17.5129 1.65901 17.091C1.23705 16.669 1 16.0967 1 15.5Z" stroke="white" stroke-width="1.6875" stroke-linejoin="round"/>
<path d="M10 8C11.864 8 13.375 6.48896 13.375 4.625C13.375 2.76104 11.864 1.25 10 1.25C8.13604 1.25 6.625 2.76104 6.625 4.625C6.625 6.48896 8.13604 8 10 8Z" stroke="white" stroke-width="1.6875"/>
</svg>
