<svg width="29" height="17" viewBox="0 0 29 17" fill="none" xmlns="http://www.w3.org/2000/svg">
<path d="M14.4935 0.303345C6.47584 0.303345 0.149719 8.49947 0.149719 8.49947C0.149719 8.49947 6.47584 16.6967 14.4935 16.6967C20.6241 16.6967 28.8372 8.49947 28.8372 8.49947C28.8372 8.49947 20.6241 0.303345 14.4935 0.303345ZM14.4935 13.6058C11.6778 13.6058 9.38603 11.3151 9.38603 8.49947C9.38603 5.68384 11.6778 3.39203 14.4935 3.39203C17.3091 3.39203 19.6009 5.68384 19.6009 8.49947C19.6009 11.3151 17.3091 13.6058 14.4935 13.6058ZM14.4935 5.51809C14.0973 5.51061 13.7036 5.58219 13.3354 5.72863C12.9672 5.87507 12.6319 6.09344 12.349 6.37098C12.0662 6.64852 11.8415 6.97966 11.6882 7.34503C11.5348 7.7104 11.4558 8.10268 11.4558 8.49894C11.4558 8.8952 11.5348 9.28748 11.6882 9.65285C11.8415 10.0182 12.0662 10.3494 12.349 10.6269C12.6319 10.9044 12.9672 11.1228 13.3354 11.2692C13.7036 11.4157 14.0973 11.4873 14.4935 11.4798C15.2743 11.465 16.0182 11.1445 16.5651 10.5871C17.1121 10.0297 17.4186 9.2799 17.4186 8.49894C17.4186 7.71798 17.1121 6.96819 16.5651 6.41078C16.0182 5.85337 15.2743 5.53284 14.4935 5.51809Z" fill="white"/>
</svg>
